# xmcd
#
# Track frame offsets: 
#        150
#        9327
#        24215
#        40912
#        62172
#        89763
#        109860
#        125681
#        152702
#        180750
#        200348
#        213445
#
# Disc length: 3046 seconds
#
# Revision: 0
# Processed by: cddbd v1.5.1PL0 Copyright (c) Steve Scherf et al.
# Submitted via: ExactAudioCopy v0.95a5
#
DISCID=980be40c
DTITLE=j.z.gobbo - c. a. night
DYEAR=2005
DGENRE=Blues
TTITLE0=the new train is coming
TTITLE1=baby please dont go
TTITLE2=c.a. night
TTITLE3=roadhouse blues
TTITLE4=i want jesus
TTITLE5=kind hearted woman
TTITLE6=washin machine
TTITLE7=monkey on the limb
TTITLE8=they cant take away our music
TTITLE9=rising river blues
TTITLE10=trouble in mind
TTITLE11=the new train is coming - part2
EXTD=
EXTT0=
EXTT1=
EXTT2=
EXTT3=
EXTT4=
EXTT5=
EXTT6=
EXTT7=
EXTT8=
EXTT9=
EXTT10=
EXTT11=
PLAYORDER=
